<svg id="Layer_1" data-name="Layer 1" xmlns="http://www.w3.org/2000/svg" viewBox="0 0 395.53 112.93"><defs><style>.cls-1,.cls-2{fill:#441414;}.cls-1{fill-rule:evenodd;}.cls-3{fill:#e97424;}.cls-4{fill:#fcb913;}.cls-5{fill:#55a546;}.cls-6{fill:#527dbe;}</style></defs><path class="cls-1" d="M38.75,9.16A54.79,54.79,0,0,0,7.58,80.08a55.46,55.46,0,0,0,29,30.79h89.14c-35.84-34.12-74-13.78-89.28-42-3-5.6-2.17-12.38.39-18.2A23.79,23.79,0,0,1,80.4,69.78l-.35.77a10.37,10.37,0,0,0,5.32,13.64l9.41,4.14A10.34,10.34,0,0,0,108.42,83l.35-.78a54.79,54.79,0,0,0-70-73.09"/><path class="cls-2" d="M145.27,56.74a3.92,3.92,0,0,1-1.32,3,4.37,4.37,0,0,1-3,1.21,4.09,4.09,0,0,1-4.3-4.22V16.68a4.06,4.06,0,0,1,1.25-3A4.41,4.41,0,0,1,141,12.45,4.17,4.17,0,0,1,144,13.66a4,4,0,0,1,1.29,3Z"/><path class="cls-2" d="M200.22,36.71a26.9,26.9,0,0,1-1.73,9.7,24.76,24.76,0,0,1-4.89,7.94,23.48,23.48,0,0,1-26.37,5.37,23,23,0,0,1-7.45-5.37,24.73,24.73,0,0,1-4.88-7.94,26.69,26.69,0,0,1-1.73-9.7A26.74,26.74,0,0,1,154.9,27a24.69,24.69,0,0,1,4.88-7.93,23.43,23.43,0,0,1,26.34-5.37,22.44,22.44,0,0,1,7.48,5.37A24.71,24.71,0,0,1,198.49,27,27,27,0,0,1,200.22,36.71Zm-9,0a18.66,18.66,0,0,0-1.87-8.42,15.36,15.36,0,0,0-5.13-6,14,14,0,0,0-15.11,0,15.11,15.11,0,0,0-5.09,6,19,19,0,0,0-1.84,8.46A19.08,19.08,0,0,0,164,45.13a15,15,0,0,0,5.09,6,14,14,0,0,0,15.11,0,15.33,15.33,0,0,0,5.13-6A18.69,18.69,0,0,0,191.21,36.71ZM200.5,62.9a3.82,3.82,0,0,1,2.7,1.22,3.75,3.75,0,0,1,1.25,2.8,4.23,4.23,0,0,1-1.42,3,14.08,14.08,0,0,1-3.64,2.53,23.08,23.08,0,0,1-4.61,1.73,17.09,17.09,0,0,1-4.33.62,24,24,0,0,1-6.86-.79,19.8,19.8,0,0,1-4.23-1.8c-1.11-.67-2.15-1.28-3.12-1.81a7.25,7.25,0,0,0-3.53-.79,4.26,4.26,0,0,0-2.11.45c-.54.3-1.11.6-1.74.9a6.1,6.1,0,0,1-2.6.45,3.76,3.76,0,0,1-2.91-1.32,4.21,4.21,0,0,1-1.18-2.84,3.5,3.5,0,0,1,2.43-3.6L179,58.33l6.23,1.53-13.44,5,3.95-2.28a11.38,11.38,0,0,1,4.26.73,32,32,0,0,1,3.5,1.62,34.75,34.75,0,0,0,3.43,1.63,10.5,10.5,0,0,0,4.06.73,7.28,7.28,0,0,0,3.15-.62,12.85,12.85,0,0,0,2.25-1.39l2.12-1.63A3.27,3.27,0,0,1,200.5,62.9Z"/><path class="cls-2" d="M253.93,52.86A4.25,4.25,0,0,1,257,54a3.88,3.88,0,0,1,1.21,2.94A3.81,3.81,0,0,1,257,59.82a4.25,4.25,0,0,1-3,1.14H231.41a4.13,4.13,0,0,1-4.23-4.22V16.68a4.06,4.06,0,0,1,1.25-3,4.41,4.41,0,0,1,3.19-1.21,4.17,4.17,0,0,1,2.94,1.21,4,4,0,0,1,1.28,3V54l-1.52-1.17Z"/><path class="cls-2" d="M283.87,23.33l-15,35.21a4.19,4.19,0,0,1-1.49,2,3.62,3.62,0,0,1-2.18.73,3.48,3.48,0,0,1-2.77-1,3.77,3.77,0,0,1-.9-2.56,4.87,4.87,0,0,1,.2-1.32L279,15a4.52,4.52,0,0,1,1.7-2.15,3.63,3.63,0,0,1,2.46-.63A4.13,4.13,0,0,1,287.06,15l17.05,40.61a4.67,4.67,0,0,1,.35,1.66,3.84,3.84,0,0,1-1.22,3,3.88,3.88,0,0,1-2.67,1.11,3.62,3.62,0,0,1-2.25-.76,5,5,0,0,1-1.56-2.08l-14.9-34.72ZM271.05,50.08l3.81-8h18.72l1.31,8Z"/><path class="cls-2" d="M332,12.45q6.64,0,9.91,3.12t3.26,9.22a9.89,9.89,0,0,1-6.31,9.53,19.36,19.36,0,0,1-7.69,1.35l.27-3.12a24.06,24.06,0,0,1,4.92.59,18.33,18.33,0,0,1,5.38,2.08A12.27,12.27,0,0,1,346,39.38a12.49,12.49,0,0,1,1.7,6.82,16.47,16.47,0,0,1-1.49,7.49,11.46,11.46,0,0,1-3.92,4.5,15.3,15.3,0,0,1-5.19,2.19,25.86,25.86,0,0,1-5.34.58H314.5a4.13,4.13,0,0,1-4.22-4.22V16.68a4.13,4.13,0,0,1,4.22-4.23Zm-1.25,8.18H318.38l.91-1.11V32.06l-.84-.62h12.48a5.48,5.48,0,0,0,3.6-1.32,4.65,4.65,0,0,0,1.6-3.81A5.61,5.61,0,0,0,334.64,22,5.63,5.63,0,0,0,330.72,20.63Zm.56,19H318.66l.63-.56V53.69l-.7-.7h13.17a7.26,7.26,0,0,0,5.06-1.69,6.54,6.54,0,0,0,1.87-5.1c0-2.08-.42-3.58-1.25-4.5a5.35,5.35,0,0,0-3-1.74A16.27,16.27,0,0,0,331.28,39.62Z"/><path class="cls-2" d="M371.19,61.66a29.19,29.19,0,0,1-8.73-1.22,20.58,20.58,0,0,1-7.41-4.26,5.42,5.42,0,0,1-1.39-1.73,4.34,4.34,0,0,1-.48-1.94,4,4,0,0,1,1.14-2.81,3.78,3.78,0,0,1,2.88-1.21,3.69,3.69,0,0,1,2.35.83,22.28,22.28,0,0,0,5.23,3.26,16.37,16.37,0,0,0,6.41,1.11,13.55,13.55,0,0,0,4.72-.8,9.24,9.24,0,0,0,3.46-2.15,4.29,4.29,0,0,0,1.32-3.08,5.26,5.26,0,0,0-1.25-3.54,9.45,9.45,0,0,0-3.81-2.46,29.36,29.36,0,0,0-6.51-1.56,29.3,29.3,0,0,1-6.59-1.69,15.48,15.48,0,0,1-4.75-2.92,11.35,11.35,0,0,1-2.87-4.15,14.15,14.15,0,0,1-1-5.37,12.71,12.71,0,0,1,2.32-7.7,14.62,14.62,0,0,1,6.27-4.85,22.3,22.3,0,0,1,8.73-1.66,25.1,25.1,0,0,1,8.36,1.35,19.42,19.42,0,0,1,6.27,3.43,4.62,4.62,0,0,1,2,3.67A4,4,0,0,1,386.72,23,3.7,3.7,0,0,1,384,24.23a3,3,0,0,1-1.87-.62,12.54,12.54,0,0,0-3-1.84,26.78,26.78,0,0,0-3.95-1.45,14,14,0,0,0-3.88-.59,14.41,14.41,0,0,0-5,.76,6.85,6.85,0,0,0-3.08,2.08,4.74,4.74,0,0,0-1,3.05,4.94,4.94,0,0,0,1.21,3.43,8.21,8.21,0,0,0,3.5,2.15,41.21,41.21,0,0,0,5.47,1.42,56.43,56.43,0,0,1,7.32,1.8,17,17,0,0,1,5.23,2.67A10.19,10.19,0,0,1,388,41.18a15.45,15.45,0,0,1,1,6,12.39,12.39,0,0,1-2.5,7.76,15.86,15.86,0,0,1-6.55,5A22,22,0,0,1,371.19,61.66Z"/><path class="cls-3" d="M146,97.64l-.93-2.17h-4.21l-.93,2.17h-2.39l4.34-10h2.17l4.33,10Zm-3-7-1.26,2.92h2.51Z"/><path class="cls-3" d="M157.3,87.6h2.24v10H157.3l-4.79-6.29v6.29h-2.24v-10h2.1l4.93,6.47Z"/><path class="cls-4" d="M174.38,97.64l-.93-2.17h-4.21l-.93,2.17h-2.38l4.33-10h2.17l4.34,10Zm-3-7-1.26,2.92h2.51Z"/><path class="cls-4" d="M185.17,92.53h2.25v3.56a5.26,5.26,0,0,1-4.13,1.67,5.08,5.08,0,0,1-3.71-1.47,4.94,4.94,0,0,1-1.5-3.7,5,5,0,0,1,1.52-3.72,5.09,5.09,0,0,1,3.7-1.5,5.44,5.44,0,0,1,3.75,1.43l-1.16,1.68a4.46,4.46,0,0,0-1.24-.82,3.53,3.53,0,0,0-1.23-.22,3,3,0,0,0-2.16.87,3.48,3.48,0,0,0,0,4.57,2.71,2.71,0,0,0,2,.85,3.92,3.92,0,0,0,1.94-.44Z"/><path class="cls-4" d="M190.14,87.6h2.24v10h-2.24Z"/><path class="cls-4" d="M195.57,97.64v-10h2.24v8.05h4.28v2Z"/><path class="cls-4" d="M211.68,87.6v2h-5v2.07h4.5v1.91h-4.5v2.08h5.16v2h-7.4v-10Z"/><path class="cls-5" d="M219.06,97.64v-10h2.24v8.05h4.28v2Z"/><path class="cls-5" d="M235.17,87.6v2h-5v2.07h4.5v1.91h-4.5v2.08h5.16v2h-7.4v-10Z"/><path class="cls-5" d="M245.2,97.64l-.94-2.17h-4.21l-.93,2.17h-2.38l4.33-10h2.17l4.34,10Zm-3-7-1.27,2.92h2.51Z"/><path class="cls-5" d="M257.6,90.94a3,3,0,0,1-1.91,3.11l2.54,3.59h-2.75l-2.23-3.2H251.7v3.2h-2.24v-10h3.8a5.48,5.48,0,0,1,3.34.79A3.05,3.05,0,0,1,257.6,90.94Zm-2.7,1.19a1.52,1.52,0,0,0,.42-1.19,1.28,1.28,0,0,0-.43-1.11,2.78,2.78,0,0,0-1.51-.3H251.7v3h1.64A2.4,2.4,0,0,0,254.9,92.13Z"/><path class="cls-5" d="M267.64,87.6h2.24v10h-2.24l-4.78-6.29v6.29h-2.24v-10h2.09l4.93,6.47Z"/><path class="cls-5" d="M273.07,87.6h2.24v10h-2.24Z"/><path class="cls-5" d="M285.52,87.6h2.24v10h-2.24l-4.78-6.29v6.29H278.5v-10h2.09l4.93,6.47Z"/><path class="cls-5" d="M297.47,92.53h2.25v3.56a5.28,5.28,0,0,1-4.14,1.67,5.1,5.1,0,0,1-3.71-1.47,5.3,5.3,0,0,1,0-7.42,5.08,5.08,0,0,1,3.69-1.5,5.48,5.48,0,0,1,3.76,1.43l-1.17,1.68a4.33,4.33,0,0,0-1.24-.82,3.53,3.53,0,0,0-1.23-.22,2.93,2.93,0,0,0-2.15.87,3.47,3.47,0,0,0,0,4.57,2.71,2.71,0,0,0,2,.85,4,4,0,0,0,1.94-.44Z"/><path class="cls-6" d="M314.09,97.64l-.93-2.17H309L308,97.64h-2.38l4.33-10h2.17l4.34,10Zm-3-7-1.26,2.92h2.51Z"/><path class="cls-6" d="M323,95.66a3.32,3.32,0,0,0,2.7-1.31l1.44,1.48a5.41,5.41,0,0,1-7.85.46,5.3,5.3,0,0,1,0-7.42,5.13,5.13,0,0,1,3.74-1.5,5.31,5.31,0,0,1,4.13,1.88l-1.39,1.58a3.27,3.27,0,0,0-2.64-1.32,3.07,3.07,0,0,0-2.16.83,2.87,2.87,0,0,0-.9,2.23,3,3,0,0,0,.85,2.24A2.77,2.77,0,0,0,323,95.66Z"/><path class="cls-6" d="M336.67,97.64l-.93-2.17h-4.21l-.94,2.17h-2.38l4.34-10h2.17l4.33,10Zm-3-7-1.26,2.92h2.51Z"/><path class="cls-6" d="M348.6,88.92A4.68,4.68,0,0,1,350,92.57a5,5,0,0,1-1.4,3.71,5.9,5.9,0,0,1-4.27,1.36h-3.44v-10h3.55A5.86,5.86,0,0,1,348.6,88.92Zm-1.64,6a2.92,2.92,0,0,0,.82-2.25,3,3,0,0,0-.82-2.28,3.55,3.55,0,0,0-2.54-.79h-1.25v6.1h1.43A3.31,3.31,0,0,0,347,94.88Z"/><path class="cls-6" d="M359.93,87.6v2h-5v2.07h4.49v1.91h-4.49v2.08h5.15v2H352.7v-10Z"/><path class="cls-6" d="M371.79,91.32l-2.71,5.49h-1.34L365,91.32v6.32H362.8v-10h3l2.59,5.52L371,87.6h3v10h-2.24Z"/><path class="cls-6" d="M381.54,97.64H379.3v-4l-3.47-6.08h2.43l2.16,3.74,2.17-3.74H385l-3.48,6.08Z"/><path class="cls-2" d="M137.63,105.2c10.3-.22,20.61-.32,30.92-.48l30.93-.28c20.61-.17,41.23-.15,61.85-.24,20.62.08,41.23.08,61.85.23l30.93.28c10.3.17,20.61.27,30.92.49-10.31.23-20.62.33-30.92.49l-30.93.28c-20.62.16-41.23.15-61.85.23-20.62-.08-41.24-.07-61.85-.23l-30.93-.28C158.24,105.53,147.93,105.43,137.63,105.2Z"/><path class="cls-2" d="M137.63,80.61c10.3-.23,20.61-.32,30.92-.49l30.93-.28c20.61-.16,41.23-.15,61.85-.23,20.62.08,41.23.07,61.85.23l30.93.28c10.3.16,20.61.26,30.92.49-10.31.22-20.62.32-30.92.49l-30.93.28c-20.62.16-41.23.15-61.85.23-20.62-.09-41.24-.07-61.85-.24l-30.93-.27C158.24,80.93,147.93,80.83,137.63,80.61Z"/></svg>